<svg xmlns="http://www.w3.org/2000/svg" width="266" height="84" fill="none" viewBox="0 0 266 84"><path fill="#08C" d="M132.19 66.6h-7.275v.025h-1.959c-1.63 0-3.062-1.353-3.062-2.888 0-1.725 1.228-2.884 3.062-2.884h16.778v-3.968h-19.779c-2.625 0-7.723 1.432-8.239 6.911-.005.123-.129 3.093 1.906 5.247 1.325 1.388 3.22 2.096 5.629 2.096h8.556v-.022h1.949c.939 0 3.99.307 3.99 4.168 0 3.104-2.15 4.2-3.99 4.2h-16.493v3.964h19.453s.088.007.239.007c3.965 0 8.597-2.213 8.597-8.463 0-.08-.105-8.393-9.362-8.393M174.898 65.346c0-6.247-4.634-8.46-8.6-8.46-.117 0-.188-.004-.197 0h-20.847v3.97h17.855c1.836 0 3.98 1.096 3.98 4.196 0 3.867-3.051 4.17-3.98 4.17h-17.855V83.45h8.127v-9.711h12.148c9.261 0 9.369-8.31 9.369-8.393M251.442 60.853h13.695v-3.967h-12.972c-4.876 0-8.628 1.367-11.141 4.07-3.499 3.766-3.308 8.72-3.276 9.236-.007.524-.007 5.577 3.625 9.333 2.528 2.606 6.16 3.925 10.792 3.925h12.972v-3.964h-13.725c-.152 0-1.498-.035-2.823-1.135-1.637-1.364-2.56-3.853-2.708-7.212h19.256v-3.968h-19.075c.964-6.114 4.852-6.318 5.38-6.318M211.897 60.955c-3.504 3.767-3.304 8.72-3.269 9.236-.013.524-.013 5.577 3.623 9.335 2.518 2.605 6.15 3.924 10.788 3.924h12.974v-3.964h-13.728c-.145 0-1.497-.035-2.829-1.134-1.787-1.494-2.736-4.324-2.736-8.186 0-9.047 4.995-9.314 5.596-9.314h13.697v-3.966h-12.974c-4.882 0-8.627 1.368-11.142 4.069"/><path fill="#294E92" d="M.57 83.45h8.133V57.123H.569zM71.823 61.042c-2.273-2.598-6.104-3.919-11.388-3.919H45.31v26.333h8.135V61.094l7.593-.003h.077c1.104 0 4.727.46 4.727 6.383v15.982h8.124V67.474l-.005-.247c.045-.988-.032-3.777-2.138-6.185M39.425 61.042c-2.273-2.598-6.108-3.919-11.385-3.919H12.912v26.333h8.133V61.094l7.59-.003h.085c1.112 0 4.724.46 4.724 6.383v15.982h8.124V67.474l-.006-.247c.043-.988-.028-3.777-2.137-6.185M94.995 79.486H90.57c-.19 0-1.513-.056-2.81-1.133-1.787-1.495-2.742-4.324-2.742-8.187 0-9.048 4.99-9.313 5.592-9.313h4.3549999999999995c.605 0 5.597.265 5.597 9.313 0 3.863-.95 6.692-2.737 8.187-1.304 1.077-2.626 1.133-2.815 1.133zm10.391-18.53c-.336-.36-.7-.695-1.077-1.005-2.462-2.037-5.84-3.065-10.071-3.065h-2.899c-4.23 0-7.608 1.033-10.069 3.065q-.573.466-1.07 1.004c-3.507 3.767-3.311 8.72-3.275 9.236-.016.524-.016 5.578 3.622 9.335.226.232.479.448.723.663 2.472 2.16 5.853 3.261 10.07 3.261h2.898c4.221 0 7.593-1.101 10.071-3.261.246-.215.497-.431.722-.663 3.636-3.757 3.636-8.81 3.622-9.335.037-.516.234-5.469-3.267-9.236"/><path fill="#08C" d="M196.86 71.562h-10.224l10.224-9.412zm0-14.438h-2.676L165.602 83.45h8.13l8.594-7.917h14.534v7.924h8.134V57.124h-8.134"/><path fill="url(#a)" d="M147.283 3.815c-4.644-2.228-9.391-3.316-14.507-3.316-5.339 0-10.164 1.088-14.889 3.316-4.65-2.228-9.398-3.316-14.512-3.316-11.38 0-20.374 4.746-31.046 16.384l-1.726 1.886 1.726 1.884c10.672 11.642 19.667 16.388 31.046 16.388 5.202 0 9.974-1.076 14.709-3.285 4.572 2.21 9.375 3.285 14.692 3.285 5.204 0 9.969-1.076 14.708-3.285 4.573 2.21 9.375 3.285 14.689 3.285 11.234 0 20.516-4.9 31.044-16.388l1.732-1.884-1.732-1.886C182.832 5.553 173.256.499 162.173.499c-5.336 0-10.161 1.088-14.89 3.316m6.074 26.658-.304-.097.26-.184c3.439-2.456 6.872-5.573 10.504-9.539l1.732-1.884-1.732-1.886c-3.616-3.95-7.08-7.07-10.588-9.542l-.262-.188.305-.097c2.807-.867 5.721-1.287 8.901-1.287 9.319 0 17.058 3.858 25.87 12.89l.106.114-.106.11c-8.78 9.034-16.516 12.886-25.87 12.886-3.12 0-6.005-.426-8.816-1.296m-20.701-15.456c-2.993-3.085-5.881-5.598-8.823-7.676l-.266-.188.306-.097c2.807-.867 5.72-1.287 8.903-1.287 3.06 0 5.915.427 8.731 1.31l.306.093-.256.188c-2.836 2.044-5.67 4.55-8.668 7.655l-.113.118zm-55.15 3.863-.109-.11.11-.113C86.38 9.504 93.872 5.77 103.375 5.77c3.06 0 5.918.427 8.734 1.31l.304.093-.258.188c-3.368 2.428-6.776 5.545-10.426 9.523l-1.726 1.886 1.726 1.884c3.659 3.987 7.078 7.11 10.463 9.548l.263.194-.307.092c-2.799.864-5.667 1.282-8.773 1.282-9.352 0-17.084-3.856-25.868-12.89m58.797 0-.11-.11.11-.113c3.897-4.018 7.498-6.956 11.002-8.978l.082-.044.077.044c3.645 2.068 7.301 5.005 11.179 8.98l.11.114-.11.11c-3.886 3.996-7.511 6.934-11.247 8.977-3.583-2.043-7.207-4.984-11.093-8.98m-29.398 0-.109-.11.109-.113c3.898-4.018 7.496-6.956 11.003-8.978l.079-.044.081.044c3.645 2.068 7.299 5.006 11.181 8.98l.104.114-.104.11c-3.89 3.993-7.518 6.934-11.249 8.977-3.58-2.045-7.211-4.984-11.095-8.98m17.055 11.593-.312-.097.269-.184c2.888-2.072 5.752-4.572 8.739-7.673l.12-.116.113.118c3.01 3.12 5.86 5.634 8.706 7.68l.26.194-.311.092c-2.795.864-5.667 1.282-8.768 1.282-3.123 0-6.004-.426-8.816-1.296"/><defs><linearGradient id="a" x1="194.701" x2="72.6957" y1="18.7694" y2="18.7694" gradientUnits="userSpaceOnUse"><stop stop-color="#00B0F0"/><stop offset="0.716204" stop-color="#294E92"/><stop offset="1" stop-color="#294E92"/></linearGradient></defs></svg>