<svg xmlns="http://www.w3.org/2000/svg" width="1000" height="543.587" viewBox="0 0 1000 543.587"><path fill="#2d55a6" d="M40.728 420.402a9.839 9.839 0 0 1-9.818 9.829 9.839 9.839 0 0 1-2.521-19.319h5.052a9.839 9.839 0 0 1 7.287 9.49m21.091-23.418H40.636v-9.49H23.193v9.49H0v13.928h9.767a23.182 23.182 0 1 0 44.325 9.49c0-3.392-.758-6.59-2.04-9.49h9.767z"/><path fill="#2d55a6" d="M90.424 397.003v.04a14.082 14.082 0 0 0-15.157 14.01l.02.113h-.02v47.85H15.692v-16.93H.247v15.435h.01c.113 8.28 6.334 15.003 14.205 15.66v.05h61.81v-.03h14.696v-62.034h14.962v-14.164zM894.712 412.175a13.59 13.59 0 0 0-13.466-15.29 10.146 10.146 0 0 0-1.363.091h-88.087v14.81h87.226v18.58h-86.785v14.39h41.65v28.828h17.863v-28.829h31.822v-.123h11.14zM205.315 397.063v-.154h-90.69v14.256h86.498v8.24h-87.225v13.938h41.373v8.056h-41.373v14.41h87.225v16.684h16.5v-17.956h-.071a13.559 13.559 0 0 0-13.231-13.036v-.102h-31.094v-8.056h44.366v-6.446h.184v-15.148a13.518 13.518 0 0 0-12.462-14.686M292.829 463.429a9.808 9.808 0 1 1 9.551-11.97v3.874h.082a9.767 9.767 0 0 1-9.633 8.096m41.455-52.914v-13.517h-18.939a11.704 11.704 0 0 0-12.842 10.515h-.122v23.571a24.443 24.443 0 0 0-22.916 2.153 21.973 21.973 0 0 1-6.375 6.067 24.607 24.607 0 0 0-4.776 14.532 24.632 24.632 0 0 0 49.265 0c0-.584-.04-1.107-.082-1.66v-41.66z"/><path fill="#2d55a6" d="M261.282 430.62a9.818 9.818 0 1 1 0-19.636 9.818 9.818 0 0 1 0 19.637m18.18 2.613a21.932 21.932 0 0 0 1.733-22.342h12.308v-13.948h-22.936v-9.92h-17.443v9.92h-22.752v13.948h11.15a22.086 22.086 0 0 0 19.842 31.812c4.314 0 8.332-1.271 11.724-3.403a24.735 24.735 0 0 1 6.375-6.067M553.392 438.158H451.203v14.4h43.392v20.558h15.691v-20.558h43.106zM409.071 451.448a12.862 12.862 0 1 1-16.387-12.35h7.06c5.402 1.548 9.327 6.488 9.327 12.35m19.913-54.44-.564.03v-.093h-83.935v13.949h81.107v13.825h-34.405v-11.212h-17.453v11.212h-28.809v14.379H369.8a28.532 28.532 0 1 0 51.673 0h4.12v.04h17.023v-30.51h-.185a13.6 13.6 0 0 0-13.446-11.621M501.658 394.08a12.862 12.862 0 1 1-.03 25.674 12.862 12.862 0 0 1 .03-25.673m-.153 40.984a27.66 27.66 0 1 0-.012-55.312 27.66 27.66 0 0 0 .012 55.312M594.761 431.231c13.498.513 17.556-7.502 17.556-7.502 7.81 9.122 21.594 7.615 21.594 7.615v-.051h31.545v-14.246h-30.09v-.03h-4.683s-8.743-.83-8.087-6.98h42.727v-14.42h-103.46v14.42h40.656c-.092 1.63-1.158 5.033-8.127 6.857h-32.529v14.4h32.898zM562.29 440.33v14.388h41.209v18.837h18.304v-18.837h43.966V440.33zM736.896 414.727a26.892 26.892 0 0 0-.81-5.124h21.01v5.124zM709.47 428.86c-7.071 0-12.83-5.729-12.83-12.821s5.759-12.862 12.83-12.862c7.103 0 12.852 5.77 12.852 12.862 0 7.092-5.75 12.82-12.852 12.82m64.187-22.197h-.143a13.58 13.58 0 0 0-13.149-11.786v-.082h-33.964a27.293 27.293 0 0 0-17.064-5.945 27.671 27.671 0 1 0 24.382 40.718h23.377v27.65h-56.777v-12.81h-17.843v13.59a5.258 5.258 0 0 0 0 .625v1.486h.113a14.481 14.481 0 0 0 13.764 12.626v.205h70.51v-.082h6.795zM937.228 402.798a12.134 12.134 0 1 1-.011 24.259 12.134 12.134 0 0 1 .011-24.259m22.567 23.377a25.191 25.191 0 1 0-45.114 0h-7.666v12.114h20.149v11.663h16.93v-11.663h31.69v-12.114z"/><path fill="#2d55a6" d="M1000 407.491a11.99 11.99 0 0 0-13.119-12.032v-.102H962.05v14.153h22.045v50.249h-56.788v-9.808h-16.602v12.575h-.012c.851 6.252 6.488 11.14 13.313 11.14.277 0 .503-.03.759-.061h59.329v.164h15.772V407.49zM338.847 224.398h-43.946l-49.132 60.538v-61.307h-35.152v128.517h35.152v-63.152l46.929 63.152h43.925l-50.618-64.443zM489.532 254.414h-35.714v97.752h35.714z"/><path fill="#2d55a6" d="m336.575 352.145 31.596-128.394h19.278l48.599-169.389L466.927 5.62s8.455-13.15 16.971.779c8.455 13.928 26.206 47.963 26.206 47.963l50.146 169.389H578l27.846 128.363h-37.028L538.667 225.36h-16.982L482.34 54.362l-8.496-13.17-7.707 13.17-39.344 170.823h-20.056l-33.124 126.96z"/><path fill="#2d55a6" d="M693.94 281.136h-51.643v-27.568h51.643a13.784 13.784 0 1 1 0 27.568m11.304 21.666c23.971-1.855 35.583-23.593 35.204-38.207-.492-19.4-17.597-38.196-39.673-40.041h-94.994v127.595h36.167v-69.096l58.243 68.87h50.075z"/><path fill="#2d55a6" d="M786.366 224.769H750.24v127.113h36.137zM16.396 542.421h-9.85v-45.328h9.85z"/><path fill="#2d55a6" d="M32.16 497.476h12.022l-16.757 20.692 16.757 23.88-11.827.204-16.367-24.658zM191.353 541.554h10.259l13.99-30.561 8.67 22.096h-16.347l-3.351 8.28h32.693l-15.742-44.191h-10.853zM357.468 509.777H336.17s-7.87 1.189-7.676 10.249c0 0 0 8.7 7.676 9.674h11.243s2.572.605 2.767 3.567c0 0 0 2.972-2.767 3.371h-17.925v6.467h20.497s7.666-.184 8.455-10.043c0 0 0-9.07-8.455-10.064h-11.448s-2.746-.595-2.746-3.147c0 0-.4-3.146 2.542-3.956h18.929zM379.636 523.88h-11.017l.184-8.302h10.833s2.572 1.158 2.572 4.53c0 0-.215 3.566-2.572 3.771m0-14.809-19.893.205-.204 33.728h9.08v-12.616h11.017c10.638.79 10.454-10.28 10.454-10.28.584-11.232-10.454-11.037-10.454-11.037M631.072 509.997h6.672l11.253 33.103h-23.06l2.358-6.088h11.447l-5.913-15.762-10.259 21.85h-7.297zM707.595 509.527h-15.188s-12.206.963-13.18 16.562c0 0-.205 14.993 12.995 16.961h15.373v-7.277h-15.188s-4.91-.41-5.309-9.5c0 0-.184-8.086 5.309-10.453h15.188zM709.742 509.067v33.728h8.097v-14.01h11.427v14.01h8.076v-33.728h-8.076v13.415h-11.622v-13.415zM783.85 508.756v33.923h8.27v-20.702l14.584 20.702h8.076V508.93h-8.27v19.134l-14.78-19.308zM876.102 508.286h8.065v33.523h-7.88zM945.514 508.416v33.134H927.97s-10.229-.8-12.002-8.701v-24.433h8.66v24.033s1.384 2.798 3.342 2.798h9.47v-27.036zM999.766 514.74h-12.104c-5.247.636-5.513 7.339-5.513 7.339h17.617v6.262h-17.72c.236 4.898 5.75 7.081 5.75 7.081h11.97v5.996h-14.43c-12.216-3.29-11.724-16.04-11.724-16.04 0-15.546 11.632-16.96 11.632-16.96h14.573zM764.933 497.299h10.564v44.957h-10.564zM615.684 516.544H603.57c-5.247.615-5.493 7.368-5.493 7.368h17.607v6.221h-17.73c.236 4.93 5.74 7.113 5.74 7.113h11.99v6.016h-14.43c-12.237-3.32-11.745-16.06-11.745-16.06 0-15.516 11.642-16.971 11.642-16.971h14.594zM558.616 515.932h-12.113c-5.258.605-5.494 7.338-5.494 7.338h17.607v6.221h-17.73c.257 4.92 5.74 7.133 5.74 7.133h11.99v5.985h-14.43c-12.247-3.33-11.734-16.06-11.734-16.06 0-15.526 11.642-16.96 11.642-16.96h14.574zM469.842 515.402H457.74c-5.268.636-5.504 7.338-5.504 7.338h17.607v6.241h-17.72c.226 4.91 5.74 7.113 5.74 7.113h11.98v5.985h-14.43c-12.226-3.28-11.734-15.988-11.734-15.988 0-15.567 11.642-17.022 11.642-17.022h14.574zM262.323 515.873h-12.104c-5.247.625-5.493 7.38-5.493 7.38h17.597v6.18h-17.73c.256 4.96 5.76 7.132 5.76 7.132h11.97v6.016h-14.41c-12.237-3.32-11.734-16.029-11.734-16.029 0-15.567 11.632-17.012 11.632-17.012h14.583zM130.302 515.813h-12.124c-5.247.604-5.493 7.338-5.493 7.338h17.617v6.23h-17.75c.245 4.89 5.749 7.113 5.749 7.113h12v5.996h-14.43c-12.236-3.29-11.734-16.05-11.734-16.05 0-15.526 11.632-16.971 11.632-16.971h14.574z"/><path fill="#2d55a6" d="M948.323 508.437h26.8v6.088h-9.265v26.636h-7.881v-26.636h-9.654zM886.826 508.747h26.8v6.108h-9.265v26.616h-7.891v-26.616h-9.644zM848.129 508.856h26.79v6.109h-9.265v26.646h-7.881v-26.646h-9.644zM55.474 537.141c-5.237 0-9.48-4.909-9.48-10.945 0-5.986 4.243-10.884 9.48-10.884 5.248 0 9.49 4.898 9.49 10.884 0 6.036-4.242 10.945-9.49 10.945m.205-27.169c-9.49 0-17.166 7.359-17.166 16.47 0 9.07 7.676 16.408 17.166 16.408 9.48 0 17.177-7.338 17.177-16.408 0-9.111-7.697-16.47-17.177-16.47M311.099 536.82c-5.237 0-9.49-4.91-9.49-10.926 0-6.015 4.253-10.935 9.49-10.935s9.48 4.92 9.48 10.935c0 6.016-4.243 10.925-9.48 10.925m.194-27.169c-9.48 0-17.156 7.359-17.156 16.46 0 9.06 7.677 16.428 17.156 16.428 9.47 0 17.177-7.369 17.177-16.428 0-9.101-7.707-16.46-17.177-16.46M589.02 510.068h-21.265s-7.87 1.199-7.686 10.269c0 0 0 8.67 7.686 9.654h11.233s2.551.615 2.746 3.556c0 0 0 2.942-2.746 3.362h-17.935v6.477h20.486s7.697-.185 8.486-10.054c0 0 0-9.06-8.486-10.023h-11.416s-2.778-.625-2.778-3.187c0 0-.379-3.147 2.583-3.936h18.909zM844.68 508.687h-21.275s-7.871 1.148-7.666 10.259c0 0 0 8.64 7.666 9.654h11.242s2.542.584 2.747 3.546c0 0 0 2.962-2.747 3.372h-17.935v6.487h20.477s7.707-.205 8.496-10.054c0 0 0-9.07-8.496-10.084h-11.407s-2.767-.554-2.767-3.136c0 0-.38-3.167 2.562-3.936h18.899zM400.019 509.527h6.712l11.233 33.123h-23.039l2.337-6.087h11.447l-5.923-15.773-10.239 21.86h-7.297zM444.76 508.697h-15.157s-12.247.994-13.221 16.572c0 0-.195 14.994 12.995 16.982h15.383v-7.318h-15.157s-4.94-.39-5.34-9.449c0 0-.194-8.106 5.34-10.464h15.157zM146.46 508.756h6.888l11.56 33.134h-23.725l2.429-6.098h11.765l-6.088-15.793-10.545 21.89h-7.492zM680.143 542.965l-10.32-13.303c7.83-1.27 8.906-8.773 8.906-8.773 0-11.253-9.839-11.611-9.839-11.611h-19.052l-.174 33.728h8.199v-17.577l.061.072-.01-9.316h10.196s3.598.451 3.598 4.684c0 4.263-4.776 4.663-4.776 4.663h-8.988l12.042 17.433z"/><path fill="#2d55a6" d="M657.919 525.531h.03l-.03-.03zM295.276 542.906l-10.31-13.313c7.83-1.22 8.916-8.752 8.916-8.752 0-11.253-9.839-11.622-9.839-11.622h-19.082l-.164 33.748h8.219V525.36l.061.093-.02-9.306h10.187s3.618.4 3.618 4.643c0 4.263-4.776 4.714-4.776 4.714h-8.998l12.042 17.402z"/><path fill="#2d55a6" d="M273.077 525.5h.01l-.01-.051zM105.196 543.105l-10.32-13.313c7.83-1.28 8.916-8.752 8.916-8.752 0-11.263-9.838-11.601-9.838-11.601H74.88l-.164 33.717h8.22V525.59l.03.072-.01-9.316h10.218s3.587.42 3.587 4.694c0 4.233-4.766 4.643-4.766 4.643h-8.998l12.032 17.422z"/><path fill="#2d55a6" d="M82.967 525.68h.031l-.03-.022zM535.762 543.525l-12.934-17.566c9.829-1.64 11.192-11.56 11.192-11.56 0-14.84-12.34-15.332-12.34-15.332h-23.96l-.195 44.52h10.3v-23.182l.061.113-.03-12.309h12.821s4.52.543 4.52 6.119c0 5.616-5.996 6.21-5.996 6.21h-11.283l15.096 22.988z"/><path fill="#2d55a6" d="M507.889 520.536h.03l-.03-.022z"/></svg>