<svg xmlns="http://www.w3.org/2000/svg" id="_레이어_1" version="1.1" viewBox="0 0 1900.6863351 290.2393436"><defs><style>.st0{fill:#051766}</style></defs><path d="m19.145 216.36-1.16.805c23.65 43.598 68.39 73.074 119.448 73.074 75.941 0 137.432-65.012 137.432-145.12 0-22.05-9.142-40.623-19.948-54.707-14.358-18.722-34.812-27.718-55.19-27.868-16.826-.15-34.232 5.518-46.497 16.609-14.003 12.7-17.125 29.028-20.733 55.511-3.982 29.028-27.352 49.04-57.377 49.04-38.869 0-62.95-23.94-61.36-60.58.15-2.544.355-5.087.804-7.537 7.329-43.242 53.806-87.869 123.728-87.719 46.927 0 82.169 10.53 117.429 46.01l1.159-.804C233.248 29.458 188.566 0 137.433 0 61.583 0 0 65.013 0 145.12c0 22.051 9.142 40.623 19.948 54.707 14.284 18.723 34.812 27.644 55.19 27.868 16.827.225 34.233-5.518 46.497-16.608 14.003-12.7 17.125-29.028 20.734-55.512 3.982-29.027 27.407-49.04 57.376-49.04 38.944 0 63.024 23.94 61.435 60.58-.15 2.544-.356 5.087-.804 7.538-7.479 43.242-53.75 87.868-123.803 87.718-46.927 0-82.168-10.53-117.428-46.01M392.236 62.848h32.718V227.4h-32.718zm141.21 153.836c4.3 4.525 8.206 8.098 11.74 10.716h-22.341c-7.834 0-14.676-1.383-20.51-4.152-5.833-2.767-11.516-7.519-17.05-14.29l-55.526-69.37 71.642-76.74h36.85l-71.867 75.356 49.992 58.99q10.6 12.682 17.05 19.471zM587.141 219.446c-13.367-7.144-23.837-17.17-31.446-30.075S544.29 161.71 544.29 145.12s3.796-31.347 11.405-44.252 18.079-22.93 31.446-30.075q20.05-10.717 44.926-10.717c16.583 0 31.334 3.572 44.683 10.717 13.368 7.144 23.837 17.207 31.447 30.187 7.608 12.98 11.403 27.7 11.403 44.14s-3.795 31.16-11.403 44.14c-7.61 12.98-18.08 23.043-31.447 30.187s-28.268 10.718-44.683 10.718-31.559-3.573-44.926-10.718m72.801-22.014c8.132-4.601 14.508-11.372 19.126-20.274 4.6-8.903 6.917-19.583 6.917-32.04 0-12.455-2.299-23.116-6.917-32.038-4.6-8.903-10.974-15.673-19.126-20.274-8.15-4.602-17.425-6.92-27.875-6.92s-19.967 2.3-28.1 6.92c-8.151 4.6-14.508 11.37-19.126 20.274-4.599 8.903-6.917 19.583-6.917 32.039s2.3 23.118 6.917 32.039c4.6 8.921 10.975 15.673 19.126 20.274 8.133 4.601 17.5 6.92 28.1 6.92s19.724-2.3 27.875-6.92M901.361 227.4h-20.733q-12.675 0-21.426-4.376c-5.833-2.918-11.217-7.612-16.134-14.065L793.3 142.13h14.975c12.284 0 21.575-2.337 27.876-7.031 6.3-4.677 9.441-11.56 9.441-20.63 0-9.071-3.103-15.524-9.33-19.826-6.225-4.302-15.778-6.453-28.678-6.453h-20.51v139.21h-32.717V62.847h59.9c13.05 0 24.455 2.001 34.215 5.985 9.758 4.003 17.237 9.726 22.453 17.17 5.216 7.463 7.833 16.178 7.833 26.166 0 11.054-3.196 20.704-9.553 28.916-6.376 8.23-15.312 14.326-26.848 18.33l30.176 37.798c10.282 12.906 19.892 22.968 28.79 30.187zM1029.914 201.59v25.81H921.647V62.848h105.967v25.81h-73.25v41.018h61.51v25.342h-61.51v46.554h75.57zM1220.647 227.392h-19.58c-6.446 0-11.826-1.497-16.127-4.489s-8.157-8.342-11.516-16.01l-5.534-12.905h-74.183l-14.511 33.423h-30.867L1123.9 62.858h17.963l58.739 127.67c8.302 17.974 14.977 30.262 20.045 36.883zm-63.589-58.298-26.265-60.618-26.265 60.618zM1389.286 62.848V227.4h-17.973L1270.887 119.09V227.4h-28.1V62.848h17.963l100.437 108.312V62.848zM1649.604 227.392h-19.58c-6.447 0-11.826-1.497-16.128-4.489s-8.157-8.342-11.515-16.01l-5.535-12.905h-74.182l-14.512 33.423h-30.867l75.572-164.553h17.962l58.739 127.67c8.302 17.974 14.978 30.262 20.046 36.883zm-63.59-58.298-26.264-60.618-26.265 60.618zM1671.723 62.848h32.712V227.4h-32.712zM1900.686 227.4h-20.73q-12.671 0-21.424-4.376c-8.753-4.376-11.215-7.612-16.138-14.065l-49.763-66.828h14.967c12.283 0 21.58-2.337 27.882-7.031 6.302-4.677 9.442-11.56 9.442-20.63 0-9.071-3.109-15.524-9.328-19.826-6.23-4.302-15.786-6.453-28.68-6.453h-20.512v139.21h-32.723V62.847h59.91c13.05 0 24.451 2.001 34.205 5.985 9.764 4.003 17.237 9.726 22.46 17.17 5.214 7.463 7.826 16.178 7.826 26.166 0 11.054-3.192 20.704-9.546 28.916-6.374 8.23-15.32 14.326-26.845 18.33l30.172 37.798c10.282 12.906 19.89 22.968 28.794 30.187z" class="st0"/></svg>