<?xml version="1.0" encoding="UTF-8" standalone="no"?>
<!DOCTYPE svg PUBLIC "-//W3C//DTD SVG 1.1//EN" "http://www.w3.org/Graphics/SVG/1.1/DTD/svg11.dtd">
<svg width="100%" height="100%" viewBox="0 0 453 252" version="1.1" xmlns="http://www.w3.org/2000/svg" xmlns:xlink="http://www.w3.org/1999/xlink" xml:space="preserve" xmlns:serif="http://www.serif.com/" style="fill-rule:evenodd;clip-rule:evenodd;stroke-linejoin:round;stroke-miterlimit:2;">
    <g transform="matrix(1,0,0,1,-439.622819,-2552.447083)">
        <g transform="matrix(4.166667,0,0,4.166667,0,0)">
            <g transform="matrix(1,0,0,1,207.8741,655.502)">
                <path d="M0,6.287L-5.729,6.287C-5.902,6.287 -6.052,6.215 -6.141,6.089C-6.235,5.957 -6.252,5.778 -6.189,5.598L-5.996,5.047C-5.882,4.723 -5.536,4.469 -5.208,4.469L0.639,4.469L0,6.287ZM6.14,-2.91C6.023,-3.076 5.82,-3.167 5.569,-3.167L-6.313,-3.167L-7.407,0.003L1.506,0.003C1.679,0.003 1.829,0.075 1.918,0.2C2.012,0.333 2.029,0.512 1.966,0.692L1.823,1.099C1.71,1.423 1.364,1.677 1.036,1.677L-7.327,1.677C-7.7,1.677 -8.128,1.995 -8.26,2.372L-10.009,7.351C-10.218,7.945 -10.178,8.492 -9.896,8.89C-9.638,9.254 -9.199,9.454 -8.659,9.454L2.095,9.454L6.188,-2.191C6.286,-2.472 6.269,-2.727 6.14,-2.91" style="fill:rgb(11,76,133);fill-rule:nonzero;"/>
            </g>
        </g>
        <g transform="matrix(4.166667,0,0,4.166667,0,0)">
            <g transform="matrix(1,0,0,1,187.3511,664.9562)">
                <path d="M0,-12.687C-0.829,-12.687 -1.75,-12.01 -2.053,-11.177L-6.128,0L-2.932,0C-2.692,-0.54 -1.527,-3.746 0.172,-8.544C0.353,-9.053 0.895,-9.452 1.408,-9.452L10.146,-9.452L11.2,-12.687L0,-12.687Z" style="fill:rgb(11,76,133);fill-rule:nonzero;"/>
            </g>
        </g>
        <g transform="matrix(4.166667,0,0,4.166667,0,0)">
            <g transform="matrix(1,0,0,1,179.499,650.5692)">
                <path d="M0,1.7L-3.488,11.268L-9.945,11.268L-6.457,1.7L-9.65,1.7C-8.654,-1.294 -8.114,-4.495 -8.114,-7.823C-8.114,-9.596 -8.272,-11.332 -8.566,-13.021C-8.56,-12.281 -8.703,-11.487 -9.002,-10.668L-18.243,14.721C-14.759,11.624 -11.999,7.732 -10.245,3.33L-13.67,12.728C-13.842,13.198 -13.816,13.629 -13.599,13.943C-13.4,14.229 -13.056,14.387 -12.629,14.387L-3.195,14.387C-2.223,14.387 -1.143,13.593 -0.787,12.618L3.192,1.7L0,1.7Z" style="fill:rgb(11,76,133);fill-rule:nonzero;"/>
            </g>
        </g>
        <g transform="matrix(4.166667,0,0,4.166667,0,0)">
            <g transform="matrix(1,0,0,1,119.0422,655.6953)">
                <path d="M0,-25.899C-0.912,-27.079 1.773,-30.682 5.997,-33.947C10.221,-37.211 14.385,-38.901 15.297,-37.72C16.209,-36.54 13.524,-32.937 9.3,-29.673C5.076,-26.408 0.912,-24.719 0,-25.899M-7.95,15.584C-9.758,15.584 -10.996,15.169 -11.63,14.349C-12.557,13.149 -12.14,11.093 -11.628,9.58C-10.814,7.182 -9.1,4.185 -6.668,0.913C-6.262,0.367 -5.837,-0.184 -5.398,-0.74C-3.131,4.374 0.517,8.739 5.072,11.884C-0.257,14.28 -4.815,15.584 -7.95,15.584M53.486,-40.053C55.295,-40.053 56.533,-39.637 57.166,-38.818C58.093,-37.618 57.677,-35.562 57.164,-34.049C56.351,-31.651 54.636,-28.654 52.204,-25.382C51.679,-24.676 51.124,-23.96 50.542,-23.238C48.622,-28.528 45.264,-33.127 40.941,-36.566C46.065,-38.826 50.445,-40.053 53.486,-40.053M42.102,-13.52C42.225,-13.856 42.213,-14.164 42.068,-14.386C41.937,-14.587 41.705,-14.698 41.414,-14.698L28.784,-14.698C28.106,-14.698 27.344,-14.12 27.086,-13.41L18.711,9.599L9.771,9.599L21.394,-22.334L47.551,-22.334C49.159,-22.334 50.46,-21.696 51.213,-20.537C51.328,-20.36 51.427,-20.174 51.513,-19.981C51.373,-20.566 51.22,-21.147 51.047,-21.718C57.671,-29.754 60.654,-36.517 58.236,-39.645C57.314,-40.839 55.679,-41.406 53.486,-41.406C50.064,-41.406 45.277,-40.024 39.707,-37.497C34.768,-41.029 28.719,-43.108 22.185,-43.108C5.529,-43.108 -7.973,-29.605 -7.973,-12.949C-7.973,-9.15 -7.269,-5.516 -5.987,-2.168C-12.277,5.611 -15.059,12.124 -12.7,15.176C-11.777,16.37 -10.142,16.937 -7.95,16.937C-4.409,16.937 0.594,15.456 6.413,12.759C11.002,15.581 16.403,17.209 22.185,17.209C29.871,17.209 36.884,14.332 42.21,9.599L33.687,9.599L42.102,-13.52Z" style="fill:rgb(11,76,133);fill-rule:nonzero;"/>
            </g>
        </g>
    </g>
</svg>
